<svg width="38" height="34" viewBox="0 0 38 34" fill="none" xmlns="http://www.w3.org/2000/svg">
<path d="M12.7463 0.5C11.9178 0.5 11.2463 1.17157 11.2463 2C11.2463 2.82843 11.9178 3.5 12.7463 3.5V0.5ZM36.0299 2H37.5299C37.5299 1.17157 36.8583 0.5 36.0299 0.5V2ZM36.0299 32V33.5C36.8583 33.5 37.5299 32.8284 37.5299 32H36.0299ZM6.92537 32H5.42537C5.42537 32.8284 6.09695 33.5 6.92537 33.5V32ZM8.42537 27.9701C8.42537 27.1417 7.7538 26.4701 6.92537 26.4701C6.09695 26.4701 5.42537 27.1417 5.42537 27.9701H8.42537ZM1.05206 10.2405C0.410026 10.764 0.313967 11.7089 0.837502 12.3509C1.36104 12.993 2.30591 13.089 2.94794 12.5655L1.05206 10.2405ZM14.9851 10.0597L14.5541 11.4964L14.5541 11.4964L14.9851 10.0597ZM27.8269 10.5119C28.3239 9.84919 28.1896 8.90899 27.5269 8.41194C26.8641 7.91488 25.9239 8.0492 25.4269 8.71195L27.8269 10.5119ZM1.05206 19.8785C0.410026 20.4021 0.313967 21.3469 0.837502 21.989C1.36104 22.631 2.30591 22.7271 2.94794 22.2035L1.05206 19.8785ZM14.9851 19.6977L14.5541 21.1345H14.5541L14.9851 19.6977ZM27.8269 20.15C28.3239 19.4872 28.1896 18.547 27.5269 18.05C26.8641 17.5529 25.9239 17.6872 25.4269 18.35L27.8269 20.15ZM12.7463 3.5H36.0299V0.5H12.7463V3.5ZM34.5299 2V32H37.5299V2H34.5299ZM36.0299 30.5H6.92537V33.5H36.0299V30.5ZM8.42537 32V27.9701H5.42537V32H8.42537ZM2.94794 12.5655C6.54609 9.63142 10.1486 10.1748 14.5541 11.4964L15.4161 8.62292C10.8663 7.25802 5.90202 6.28564 1.05206 10.2405L2.94794 12.5655ZM14.5541 11.4964C16.2402 12.0022 18.6823 12.8558 21.0003 13.0754C23.3646 13.2994 26.0311 12.9063 27.8269 10.5119L25.4269 8.71195C24.5361 9.89967 23.1727 10.2678 21.2833 10.0888C19.3476 9.90536 17.3121 9.1917 15.4161 8.62292L14.5541 11.4964ZM2.94794 22.2035C6.54608 19.2695 10.1486 19.8129 14.5541 21.1345L15.4161 18.261C10.8663 16.8961 5.90202 15.9237 1.05206 19.8785L2.94794 22.2035ZM14.5541 21.1345C16.2402 21.6403 18.6823 22.4938 21.0003 22.7134C23.3646 22.9374 26.0311 22.5444 27.8269 20.15L25.4269 18.35C24.5361 19.5377 23.1727 19.9058 21.2833 19.7268C19.3476 19.5434 17.3121 18.8297 15.4161 18.261L14.5541 21.1345Z" fill="#232B34"/>
</svg>
